<mxfile host="Electron" agent="Mozilla/5.0 (Windows NT 10.0; Win64; x64) AppleWebKit/537.36 (KHTML, like Gecko) draw.io/26.2.15 Chrome/134.0.6998.205 Electron/35.2.1 Safari/537.36" version="26.2.15">
  <diagram name="Page-1" id="Vge_7h3leNW_wdG402mB">
    <mxGraphModel dx="786" dy="516" grid="1" gridSize="10" guides="1" tooltips="1" connect="1" arrows="1" fold="1" page="1" pageScale="1" pageWidth="827" pageHeight="1169" math="0" shadow="0">
      <root>
        <mxCell id="0" />
        <mxCell id="1" parent="0" />
        <mxCell id="YCY3HKKM1JKeloLvvwpa-1" value="&lt;font style=&quot;font-size: 20px;&quot;&gt;Integration Model&lt;/font&gt;" style="text;html=1;align=center;verticalAlign=middle;resizable=0;points=[];autosize=1;strokeColor=none;fillColor=none;" parent="1" vertex="1">
          <mxGeometry x="20" y="10" width="180" height="40" as="geometry" />
        </mxCell>
        <mxCell id="YCY3HKKM1JKeloLvvwpa-4" value="How tables are related" style="text;html=1;align=center;verticalAlign=middle;resizable=0;points=[];autosize=1;strokeColor=none;fillColor=none;" parent="1" vertex="1">
          <mxGeometry x="190" y="35" width="140" height="30" as="geometry" />
        </mxCell>
        <mxCell id="YCY3HKKM1JKeloLvvwpa-27" value="crm_sales_details" style="swimlane;fontStyle=0;childLayout=stackLayout;horizontal=1;startSize=30;horizontalStack=0;resizeParent=1;resizeParentMax=0;resizeLast=0;collapsible=1;marginBottom=0;whiteSpace=wrap;html=1;rounded=1;fillColor=#f8cecc;gradientColor=#ea6b66;strokeColor=#b85450;" parent="1" vertex="1">
          <mxGeometry x="80" y="200" width="140" height="90" as="geometry" />
        </mxCell>
        <mxCell id="YCY3HKKM1JKeloLvvwpa-28" value="cst_id" style="text;strokeColor=none;fillColor=none;align=left;verticalAlign=middle;spacingLeft=4;spacingRight=4;overflow=hidden;points=[[0,0.5],[1,0.5]];portConstraint=eastwest;rotatable=0;whiteSpace=wrap;html=1;" parent="YCY3HKKM1JKeloLvvwpa-27" vertex="1">
          <mxGeometry y="30" width="140" height="30" as="geometry" />
        </mxCell>
        <mxCell id="YCY3HKKM1JKeloLvvwpa-29" value="cst_key" style="text;strokeColor=none;fillColor=none;align=left;verticalAlign=middle;spacingLeft=4;spacingRight=4;overflow=hidden;points=[[0,0.5],[1,0.5]];portConstraint=eastwest;rotatable=0;whiteSpace=wrap;html=1;" parent="YCY3HKKM1JKeloLvvwpa-27" vertex="1">
          <mxGeometry y="60" width="140" height="30" as="geometry" />
        </mxCell>
        <mxCell id="YCY3HKKM1JKeloLvvwpa-31" value="crm_cust_info" style="swimlane;fontStyle=0;childLayout=stackLayout;horizontal=1;startSize=30;horizontalStack=0;resizeParent=1;resizeParentMax=0;resizeLast=0;collapsible=1;marginBottom=0;whiteSpace=wrap;html=1;rounded=1;fillColor=#f8cecc;gradientColor=#ea6b66;strokeColor=#b85450;" parent="1" vertex="1">
          <mxGeometry x="320" y="160" width="140" height="90" as="geometry" />
        </mxCell>
        <mxCell id="YCY3HKKM1JKeloLvvwpa-32" value="cst_id" style="text;strokeColor=none;fillColor=none;align=left;verticalAlign=middle;spacingLeft=4;spacingRight=4;overflow=hidden;points=[[0,0.5],[1,0.5]];portConstraint=eastwest;rotatable=0;whiteSpace=wrap;html=1;" parent="YCY3HKKM1JKeloLvvwpa-31" vertex="1">
          <mxGeometry y="30" width="140" height="30" as="geometry" />
        </mxCell>
        <mxCell id="YCY3HKKM1JKeloLvvwpa-34" value="cst_key" style="text;strokeColor=none;fillColor=none;align=left;verticalAlign=middle;spacingLeft=4;spacingRight=4;overflow=hidden;points=[[0,0.5],[1,0.5]];portConstraint=eastwest;rotatable=0;whiteSpace=wrap;html=1;" parent="YCY3HKKM1JKeloLvvwpa-31" vertex="1">
          <mxGeometry y="60" width="140" height="30" as="geometry" />
        </mxCell>
        <mxCell id="YCY3HKKM1JKeloLvvwpa-35" value="crm_prod_info" style="swimlane;fontStyle=0;childLayout=stackLayout;horizontal=1;startSize=30;horizontalStack=0;resizeParent=1;resizeParentMax=0;resizeLast=0;collapsible=1;marginBottom=0;whiteSpace=wrap;html=1;rounded=1;fillColor=#f8cecc;gradientColor=#ea6b66;strokeColor=#b85450;" parent="1" vertex="1">
          <mxGeometry x="320" y="320" width="150" height="60" as="geometry" />
        </mxCell>
        <mxCell id="YCY3HKKM1JKeloLvvwpa-36" value="prod_key" style="text;strokeColor=none;fillColor=none;align=left;verticalAlign=middle;spacingLeft=4;spacingRight=4;overflow=hidden;points=[[0,0.5],[1,0.5]];portConstraint=eastwest;rotatable=0;whiteSpace=wrap;html=1;" parent="YCY3HKKM1JKeloLvvwpa-35" vertex="1">
          <mxGeometry y="30" width="150" height="30" as="geometry" />
        </mxCell>
        <mxCell id="YCY3HKKM1JKeloLvvwpa-39" value="erp_cust_az12" style="swimlane;fontStyle=0;childLayout=stackLayout;horizontal=1;startSize=30;horizontalStack=0;resizeParent=1;resizeParentMax=0;resizeLast=0;collapsible=1;marginBottom=0;whiteSpace=wrap;html=1;rounded=1;fillColor=#76608a;strokeColor=#432D57;fontColor=#ffffff;" parent="1" vertex="1">
          <mxGeometry x="600" y="120" width="140" height="60" as="geometry" />
        </mxCell>
        <mxCell id="YCY3HKKM1JKeloLvvwpa-40" value="cid" style="text;strokeColor=none;fillColor=none;align=left;verticalAlign=middle;spacingLeft=4;spacingRight=4;overflow=hidden;points=[[0,0.5],[1,0.5]];portConstraint=eastwest;rotatable=0;whiteSpace=wrap;html=1;" parent="YCY3HKKM1JKeloLvvwpa-39" vertex="1">
          <mxGeometry y="30" width="140" height="30" as="geometry" />
        </mxCell>
        <mxCell id="YCY3HKKM1JKeloLvvwpa-47" value="erp_px_cat_g1v2" style="swimlane;fontStyle=0;childLayout=stackLayout;horizontal=1;startSize=30;horizontalStack=0;resizeParent=1;resizeParentMax=0;resizeLast=0;collapsible=1;marginBottom=0;whiteSpace=wrap;html=1;rounded=1;fillColor=#76608a;fontColor=#ffffff;strokeColor=#432D57;" parent="1" vertex="1">
          <mxGeometry x="600" y="410" width="140" height="60" as="geometry" />
        </mxCell>
        <mxCell id="YCY3HKKM1JKeloLvvwpa-48" value="id" style="text;strokeColor=none;fillColor=none;align=left;verticalAlign=middle;spacingLeft=4;spacingRight=4;overflow=hidden;points=[[0,0.5],[1,0.5]];portConstraint=eastwest;rotatable=0;whiteSpace=wrap;html=1;" parent="YCY3HKKM1JKeloLvvwpa-47" vertex="1">
          <mxGeometry y="30" width="140" height="30" as="geometry" />
        </mxCell>
        <mxCell id="YCY3HKKM1JKeloLvvwpa-51" value="erp_loc_a101" style="swimlane;fontStyle=0;childLayout=stackLayout;horizontal=1;startSize=30;horizontalStack=0;resizeParent=1;resizeParentMax=0;resizeLast=0;collapsible=1;marginBottom=0;whiteSpace=wrap;html=1;rounded=1;fillColor=#76608a;fontColor=#ffffff;strokeColor=#432D57;" parent="1" vertex="1">
          <mxGeometry x="600" y="260" width="140" height="60" as="geometry" />
        </mxCell>
        <mxCell id="YCY3HKKM1JKeloLvvwpa-52" value="cid" style="text;align=left;verticalAlign=middle;spacingLeft=4;spacingRight=4;overflow=hidden;points=[[0,0.5],[1,0.5]];portConstraint=eastwest;rotatable=0;whiteSpace=wrap;html=1;" parent="YCY3HKKM1JKeloLvvwpa-51" vertex="1">
          <mxGeometry y="30" width="140" height="30" as="geometry" />
        </mxCell>
        <mxCell id="YCY3HKKM1JKeloLvvwpa-55" value="customer information" style="text;html=1;align=center;verticalAlign=middle;whiteSpace=wrap;rounded=0;" parent="1" vertex="1">
          <mxGeometry x="320" y="130" width="130" height="30" as="geometry" />
        </mxCell>
        <mxCell id="YCY3HKKM1JKeloLvvwpa-56" value="extra customer info(birthdays)" style="text;html=1;align=center;verticalAlign=middle;whiteSpace=wrap;rounded=0;" parent="1" vertex="1">
          <mxGeometry x="610" y="83" width="170" height="30" as="geometry" />
        </mxCell>
        <mxCell id="YCY3HKKM1JKeloLvvwpa-57" value="transactional records abt sales &amp;amp; orers" style="text;html=1;align=center;verticalAlign=middle;whiteSpace=wrap;rounded=0;" parent="1" vertex="1">
          <mxGeometry x="90" y="170" width="140" height="30" as="geometry" />
        </mxCell>
        <mxCell id="YCY3HKKM1JKeloLvvwpa-58" value="current and history prod info" style="text;html=1;align=center;verticalAlign=middle;whiteSpace=wrap;rounded=0;" parent="1" vertex="1">
          <mxGeometry x="330" y="290" width="130" height="30" as="geometry" />
        </mxCell>
        <mxCell id="YCY3HKKM1JKeloLvvwpa-59" value="customer location(country)" style="text;html=1;align=center;verticalAlign=middle;whiteSpace=wrap;rounded=0;" parent="1" vertex="1">
          <mxGeometry x="600" y="230" width="160" height="30" as="geometry" />
        </mxCell>
        <mxCell id="YCY3HKKM1JKeloLvvwpa-60" value="product categories" style="text;html=1;align=center;verticalAlign=middle;whiteSpace=wrap;rounded=0;" parent="1" vertex="1">
          <mxGeometry x="600" y="380" width="180" height="30" as="geometry" />
        </mxCell>
        <mxCell id="YCY3HKKM1JKeloLvvwpa-62" style="edgeStyle=orthogonalEdgeStyle;rounded=0;orthogonalLoop=1;jettySize=auto;html=1;entryX=0;entryY=0.5;entryDx=0;entryDy=0;" parent="1" source="YCY3HKKM1JKeloLvvwpa-32" target="YCY3HKKM1JKeloLvvwpa-40" edge="1">
          <mxGeometry relative="1" as="geometry" />
        </mxCell>
        <mxCell id="YCY3HKKM1JKeloLvvwpa-64" style="edgeStyle=orthogonalEdgeStyle;rounded=0;orthogonalLoop=1;jettySize=auto;html=1;entryX=0.024;entryY=-0.111;entryDx=0;entryDy=0;entryPerimeter=0;" parent="1" source="YCY3HKKM1JKeloLvvwpa-28" target="YCY3HKKM1JKeloLvvwpa-34" edge="1">
          <mxGeometry relative="1" as="geometry" />
        </mxCell>
        <mxCell id="YCY3HKKM1JKeloLvvwpa-69" style="edgeStyle=orthogonalEdgeStyle;rounded=0;orthogonalLoop=1;jettySize=auto;html=1;entryX=0;entryY=0.5;entryDx=0;entryDy=0;" parent="1" source="YCY3HKKM1JKeloLvvwpa-29" target="YCY3HKKM1JKeloLvvwpa-36" edge="1">
          <mxGeometry relative="1" as="geometry" />
        </mxCell>
        <mxCell id="YCY3HKKM1JKeloLvvwpa-70" style="edgeStyle=orthogonalEdgeStyle;rounded=0;orthogonalLoop=1;jettySize=auto;html=1;entryX=0;entryY=0.5;entryDx=0;entryDy=0;" parent="1" source="YCY3HKKM1JKeloLvvwpa-32" target="YCY3HKKM1JKeloLvvwpa-52" edge="1">
          <mxGeometry relative="1" as="geometry" />
        </mxCell>
        <mxCell id="YCY3HKKM1JKeloLvvwpa-82" style="edgeStyle=orthogonalEdgeStyle;rounded=0;orthogonalLoop=1;jettySize=auto;html=1;entryX=-0.019;entryY=0.267;entryDx=0;entryDy=0;entryPerimeter=0;" parent="1" source="YCY3HKKM1JKeloLvvwpa-36" target="YCY3HKKM1JKeloLvvwpa-48" edge="1">
          <mxGeometry relative="1" as="geometry">
            <mxPoint x="600" y="433" as="targetPoint" />
          </mxGeometry>
        </mxCell>
        <mxCell id="YCY3HKKM1JKeloLvvwpa-83" value="" style="rounded=1;whiteSpace=wrap;html=1;fillColor=none;dashed=1;" parent="1" vertex="1">
          <mxGeometry x="70" y="90" width="410" height="340" as="geometry" />
        </mxCell>
        <mxCell id="YCY3HKKM1JKeloLvvwpa-86" value="&lt;font style=&quot;font-size: 20px;&quot;&gt;CRM&lt;/font&gt;" style="rounded=1;whiteSpace=wrap;html=1;fillColor=#f8cecc;strokeColor=#b85450;gradientColor=#ea6b66;" parent="1" vertex="1">
          <mxGeometry x="215" y="60" width="105" height="40" as="geometry" />
        </mxCell>
        <mxCell id="YCY3HKKM1JKeloLvvwpa-88" value="" style="rounded=1;whiteSpace=wrap;html=1;fillColor=none;dashed=1;" parent="1" vertex="1">
          <mxGeometry x="520" y="65" width="290" height="475" as="geometry" />
        </mxCell>
        <mxCell id="YCY3HKKM1JKeloLvvwpa-89" value="&lt;font style=&quot;font-size: 20px;&quot;&gt;ERP&lt;/font&gt;" style="rounded=1;whiteSpace=wrap;html=1;fillColor=#76608a;fontColor=#ffffff;strokeColor=#432D57;" parent="1" vertex="1">
          <mxGeometry x="640" y="30" width="100" height="40" as="geometry" />
        </mxCell>
        <mxCell id="3WWD7U_d3M4X8FkCdhc7-3" style="edgeStyle=orthogonalEdgeStyle;rounded=0;orthogonalLoop=1;jettySize=auto;html=1;exitX=0.5;exitY=1;exitDx=0;exitDy=0;" parent="1" source="3WWD7U_d3M4X8FkCdhc7-1" target="YCY3HKKM1JKeloLvvwpa-88" edge="1">
          <mxGeometry relative="1" as="geometry" />
        </mxCell>
        <mxCell id="3WWD7U_d3M4X8FkCdhc7-1" value="CUSTOMER" style="text;html=1;strokeColor=#005700;fillColor=#008a00;align=center;verticalAlign=middle;whiteSpace=wrap;overflow=hidden;rounded=1;fontColor=#ffffff;" parent="1" vertex="1">
          <mxGeometry x="610" y="180" width="110" height="20" as="geometry" />
        </mxCell>
        <mxCell id="3WWD7U_d3M4X8FkCdhc7-2" value="CUSTOMER" style="text;html=1;strokeColor=#005700;fillColor=#008a00;align=center;verticalAlign=middle;whiteSpace=wrap;overflow=hidden;rounded=1;fontColor=#ffffff;" parent="1" vertex="1">
          <mxGeometry x="615" y="320" width="110" height="20" as="geometry" />
        </mxCell>
        <mxCell id="3WWD7U_d3M4X8FkCdhc7-4" value="CUSTOMER" style="text;html=1;strokeColor=#005700;fillColor=#008a00;align=center;verticalAlign=middle;whiteSpace=wrap;overflow=hidden;rounded=1;fontColor=#ffffff;" parent="1" vertex="1">
          <mxGeometry x="340" y="250" width="110" height="20" as="geometry" />
        </mxCell>
        <mxCell id="3WWD7U_d3M4X8FkCdhc7-5" value="PRODUCT" style="text;html=1;strokeColor=#6F0000;fillColor=#a20025;align=center;verticalAlign=middle;whiteSpace=wrap;overflow=hidden;rounded=1;fontColor=#ffffff;" parent="1" vertex="1">
          <mxGeometry x="335" y="380" width="110" height="20" as="geometry" />
        </mxCell>
        <mxCell id="3WWD7U_d3M4X8FkCdhc7-6" value="PRODUCT" style="text;html=1;strokeColor=#6F0000;fillColor=#a20025;align=center;verticalAlign=middle;whiteSpace=wrap;overflow=hidden;rounded=1;fontColor=#ffffff;" parent="1" vertex="1">
          <mxGeometry x="615" y="470" width="110" height="20" as="geometry" />
        </mxCell>
        <mxCell id="3WWD7U_d3M4X8FkCdhc7-7" value="SALES" style="text;html=1;strokeColor=#001DBC;fillColor=#0050ef;align=center;verticalAlign=middle;whiteSpace=wrap;overflow=hidden;rounded=1;fontColor=#ffffff;" parent="1" vertex="1">
          <mxGeometry x="90" y="290" width="110" height="20" as="geometry" />
        </mxCell>
      </root>
    </mxGraphModel>
  </diagram>
</mxfile>
